<?xml version="1.0" standalone="no"?>
<!DOCTYPE svg PUBLIC "-//W3C//DTD SVG 20010904//EN"
 "http://www.w3.org/TR/2001/REC-SVG-20010904/DTD/svg10.dtd">
<svg version="1.0" xmlns="http://www.w3.org/2000/svg"
 width="712.000000pt" height="707.000000pt" viewBox="0 0 712.000000 707.000000"
 preserveAspectRatio="xMidYMid meet">

<g transform="translate(0.000000,707.000000) scale(0.100000,-0.100000)"
fill="#000000" stroke="none">
<path d="M0 6303 l0 -768 107 113 c58 62 141 139 182 170 42 31 78 60 79 64 2
5 10 8 17 8 7 0 15 4 17 8 2 5 42 30 91 56 88 48 105 65 65 67 -13 0 -17 3
-10 6 6 2 12 16 12 30 0 14 7 31 15 37 19 14 23 125 12 330 l-8 148 27 -6 c19
-5 30 -2 39 11 12 16 10 22 -12 45 -32 33 -56 22 -47 -21 4 -21 2 -20 -11 8
-20 43 -20 91 0 91 8 0 15 5 15 10 0 6 -7 10 -15 10 -8 0 -15 7 -15 15 0 8 7
15 17 15 14 0 14 2 -2 20 -17 19 -17 21 -1 39 15 17 15 19 1 25 -11 4 -16 17
-15 38 1 18 2 70 1 116 l-1 82 -280 0 -280 0 0 -767z"/>
<path d="M1009 7043 c-6 -15 -12 -66 -13 -113 -2 -54 -9 -96 -20 -115 -18 -34
-21 -65 -6 -65 15 0 12 -78 -2 -82 -10 -4 -10 -10 0 -32 6 -15 12 -42 12 -61
0 -23 5 -35 13 -35 8 0 21 -8 30 -18 19 -20 23 -37 7 -27 -5 3 -10 2 -10 -4 0
-31 311 -59 323 -28 4 9 8 8 16 -3 6 -8 11 -11 11 -6 0 5 -7 18 -17 28 -9 10
-21 27 -27 37 -6 10 -30 46 -53 80 -24 35 -43 65 -43 68 0 2 -15 35 -33 71
-38 75 -90 213 -108 285 -11 45 -31 62 -42 35 -4 -10 -6 -10 -6 0 -2 22 -21
13 -32 -15z"/>
<path d="M4945 7040 c17 -33 30 -38 39 -14 13 33 6 44 -24 44 l-31 0 16 -30z"/>
<path d="M5960 7064 c0 -3 8 -31 17 -62 12 -42 17 -98 17 -213 1 -138 2 -151
13 -116 21 73 -6 397 -34 397 -7 0 -13 -3 -13 -6z"/>
<path d="M6135 7040 c9 -17 14 -39 11 -48 -3 -9 -1 -24 4 -32 8 -12 10 -11 10
8 0 22 2 22 120 22 113 0 124 2 178 29 31 16 68 34 82 39 18 8 -36 11 -198 11
l-223 1 16 -30z"/>
<path d="M5762 6950 c0 -14 2 -19 5 -12 2 6 2 18 0 25 -3 6 -5 1 -5 -13z"/>
<path d="M5730 6874 c0 -21 4 -33 10 -29 6 3 10 19 10 36 0 16 -4 29 -10 29
-5 0 -10 -16 -10 -36z"/>
<path d="M6240 6870 l0 -40 -40 0 c-33 0 -40 -4 -40 -19 0 -10 -7 -21 -15 -25
-22 -8 -18 -34 7 -47 15 -8 62 -9 162 -4 78 4 165 8 194 9 47 1 52 3 52 24 0
19 -5 22 -40 22 -22 0 -40 5 -40 10 0 6 -20 10 -45 10 -25 0 -45 5 -45 10 0 6
-27 10 -60 10 l-60 0 0 40 c0 29 -4 40 -15 40 -11 0 -15 -11 -15 -40z"/>
<path d="M6983 6857 c-13 -5 -23 -16 -23 -23 0 -7 -9 -16 -20 -19 -11 -3 -20
-11 -20 -16 0 -14 31 -24 39 -12 3 6 41 14 84 18 74 7 109 25 48 25 -16 0 -36
6 -43 13 -21 21 -41 25 -65 14z"/>
<path d="M6528 6833 l52 -4 0 -40 c0 -32 3 -39 20 -39 17 0 20 7 20 39 0 22 5
42 13 44 6 3 -26 5 -73 4 -56 0 -67 -2 -32 -4z"/>
<path d="M6640 6790 c0 -5 18 -10 40 -10 22 0 40 5 40 10 0 6 -18 10 -40 10
-22 0 -40 -4 -40 -10z"/>
<path d="M7085 6770 c-16 -18 -17 -20 -1 -20 15 0 14 -4 -4 -40 -16 -31 -26
-40 -46 -40 -16 0 -24 -5 -21 -12 7 -21 -12 -48 -34 -48 -15 0 -19 -5 -15 -16
3 -9 2 -12 -5 -9 -6 4 -18 0 -27 -8 -9 -9 -39 -25 -66 -37 -27 -11 -46 -23
-42 -27 3 -4 -7 -12 -24 -19 -22 -10 -30 -20 -30 -39 0 -14 -4 -25 -9 -25 -5
0 -12 -11 -15 -25 -4 -14 -11 -25 -16 -25 -6 0 -10 -7 -10 -15 0 -8 -7 -15
-15 -15 -8 0 -16 -7 -16 -15 -1 -8 -2 -20 -3 -27 0 -7 -12 -18 -26 -25 -21
-11 -22 -13 -6 -13 18 0 18 -1 -3 -24 -14 -15 -30 -22 -44 -20 -15 3 -13 1 6
-7 15 -6 27 -14 27 -18 0 -9 41 -29 84 -42 30 -9 61 5 50 22 -3 5 4 9 16 9 12
0 28 7 36 15 9 8 24 15 35 15 10 0 19 5 19 11 0 12 25 39 37 39 25 0 123 115
123 144 0 9 8 16 18 16 9 1 27 9 40 19 21 18 22 25 22 180 0 89 -4 161 -8 161
-5 0 -17 -9 -27 -20z"/>
<path d="M6495 6620 c26 -11 65 -12 65 -2 0 4 -19 9 -42 10 -33 1 -38 -1 -23
-8z"/>
<path d="M6203 6613 c9 -2 23 -2 30 0 6 3 -1 5 -18 5 -16 0 -22 -2 -12 -5z"/>
<path d="M6575 6589 c-6 -13 -30 -29 -59 -40 -62 -23 -80 -39 -43 -39 15 0 27
4 27 8 0 20 144 45 188 33 30 -9 32 -8 32 14 0 24 -9 28 -90 40 -40 6 -46 4
-55 -16z"/>
<path d="M6100 6590 c-20 -6 -21 -8 -5 -8 11 0 31 4 45 8 20 6 21 8 5 8 -11 0
-31 -4 -45 -8z"/>
<path d="M5962 6539 c-17 -27 -6 -38 15 -16 11 11 14 20 7 27 -6 6 -14 2 -22
-11z"/>
<path d="M6623 6513 c9 -2 23 -2 30 0 6 3 -1 5 -18 5 -16 0 -22 -2 -12 -5z"/>
<path d="M6763 6513 c9 -2 23 -2 30 0 6 3 -1 5 -18 5 -16 0 -22 -2 -12 -5z"/>
<path d="M6367 6474 c-16 -9 -27 -17 -25 -20 6 -6 58 20 58 29 0 9 0 9 -33 -9z"/>
<path d="M675 6460 c3 -5 8 -10 11 -10 2 0 4 5 4 10 0 6 -5 10 -11 10 -5 0 -7
-4 -4 -10z"/>
<path d="M720 6408 c0 -7 12 -21 25 -31 32 -23 32 -17 0 17 -14 15 -25 21 -25
14z"/>
<path d="M6185 6350 c-3 -5 1 -10 9 -10 9 0 16 5 16 10 0 6 -4 10 -9 10 -6 0
-13 -4 -16 -10z"/>
<path d="M6546 6351 c-15 -6 -16 -10 -7 -16 7 -4 16 -3 20 3 3 6 24 12 46 15
l40 4 -40 1 c-22 0 -49 -3 -59 -7z"/>
<path d="M6380 6300 c8 -5 24 -9 35 -9 l20 0 -20 9 c-11 5 -27 9 -35 9 -13 1
-13 0 0 -9z"/>
<path d="M6498 6263 c6 -2 18 -2 25 0 6 3 1 5 -13 5 -14 0 -19 -2 -12 -5z"/>
<path d="M3223 6173 c-12 -148 -14 -236 -7 -250 6 -12 11 23 14 97 5 106 7
115 27 126 l23 11 -23 21 c-30 28 -32 28 -34 -5z"/>
<path d="M6770 6146 c0 -2 7 -6 15 -10 8 -3 15 -1 15 4 0 6 -7 10 -15 10 -8 0
-15 -2 -15 -4z"/>
<path d="M7083 6119 c-3 -17 -12 -33 -20 -36 -20 -8 3 -23 35 -23 20 0 22 5
22 45 0 54 -27 64 -37 14z"/>
<path d="M3226 5855 c4 -8 8 -15 10 -15 2 0 4 7 4 15 0 8 -4 15 -10 15 -5 0
-7 -7 -4 -15z"/>
<path d="M7103 5838 c-25 -30 -181 -128 -259 -162 -93 -41 -148 -60 -226 -77
-32 -8 -58 -17 -58 -21 0 -5 5 -8 10 -8 6 0 41 -23 78 -52 37 -28 85 -65 107
-82 92 -71 181 -193 245 -335 56 -123 51 -133 -31 -73 -121 88 -250 139 -396
156 -29 4 -53 3 -52 -1 0 -4 18 -35 39 -68 21 -33 49 -78 61 -100 31 -56 100
-145 151 -193 94 -89 112 -103 168 -137 54 -33 169 -79 177 -72 2 2 2 282 1
622 -2 495 -5 615 -15 603z"/>
<path d="M2757 5769 c-7 -27 -9 -25 21 -33 27 -9 28 1 3 33 l-18 24 -6 -24z"/>
<path d="M4004 5320 c0 -69 1 -97 3 -62 2 34 2 90 0 125 -2 34 -3 6 -3 -63z"/>
<path d="M205 5370 c-38 -4 -100 -13 -137 -20 l-68 -12 0 -134 0 -134 120 0
c94 0 120 -3 120 -14 0 -14 -79 -26 -181 -26 l-58 0 -1 -2380 c0 -1876 2
-2380 12 -2380 9 0 9 -3 0 -12 -7 -7 -12 -38 -12 -70 l0 -58 40 0 c22 0 40 -4
40 -10 0 -5 7 -10 15 -10 11 0 15 -11 15 -40 0 -39 1 -40 35 -40 24 0 35 -5
35 -15 0 -13 24 -15 159 -15 l159 0 6 27 c3 16 10 215 16 443 6 228 13 429 17
445 3 17 8 154 10 305 7 513 12 725 23 845 5 66 12 278 15 470 3 193 8 402 10
465 3 63 2 145 -3 181 -8 63 -2 116 15 128 14 10 33 98 33 150 0 31 5 53 15
61 19 16 19 30 0 30 -8 0 -15 8 -15 19 0 21 27 47 38 37 13 -13 15 -208 2
-216 -8 -5 -6 -16 8 -41 12 -21 19 -50 18 -76 -1 -24 2 -43 7 -43 5 0 6 -34 2
-80 l-7 -80 31 0 c30 0 31 -2 31 -40 0 -36 3 -40 24 -40 22 0 25 -5 29 -42 l4
-43 1 43 c1 30 6 42 17 42 11 0 15 11 15 40 0 34 -3 40 -21 40 -11 0 -17 5
-14 10 4 6 10 8 15 5 14 -9 40 6 40 23 0 13 2 14 13 3 10 -11 10 -14 0 -18
-17 -6 -17 -23 0 -23 11 0 16 -59 24 -277 6 -163 7 -280 1 -284 -10 -6 16
-139 33 -172 7 -13 11 -68 10 -146 -1 -69 3 -160 9 -201 6 -41 13 -235 15
-430 5 -383 9 -482 26 -604 6 -44 9 -113 8 -155 -3 -103 11 -365 20 -369 4 -1
6 -15 3 -31 -2 -16 1 -32 7 -35 8 -5 6 -16 -4 -36 l-15 -30 32 20 c18 11 69
37 113 59 l80 40 200 10 c385 21 637 46 750 76 l90 23 -49 4 c-48 3 -50 5 -58
38 -5 19 -15 49 -23 65 -8 17 -21 75 -30 129 -14 88 -15 132 -4 360 6 144 15
263 20 266 4 3 10 48 13 100 3 52 9 127 14 165 9 75 8 313 -2 322 -3 4 -6 17
-6 30 0 20 3 23 28 17 24 -6 22 -3 -18 30 -74 62 -225 218 -252 261 -56 91
-64 132 -89 478 -12 161 -13 169 -35 177 -27 11 -64 72 -94 155 -12 33 -42
102 -67 152 l-45 93 -37 -48 c-45 -56 -171 -175 -178 -168 -3 2 5 30 16 61 24
63 48 242 37 270 -11 29 -82 14 -172 -36 -82 -46 -210 -163 -239 -219 -9 -17
-22 -30 -29 -30 -20 0 -26 44 -32 245 -5 160 -4 192 16 285 11 58 30 120 40
138 20 33 13 40 -22 21 -12 -7 -65 -23 -117 -36 -82 -22 -121 -25 -261 -27
-190 -1 -300 9 -300 29 0 7 25 31 55 54 30 23 55 45 55 49 1 4 23 32 51 62 70
78 197 340 187 387 -2 11 -14 -7 -28 -44 -14 -35 -33 -73 -42 -85 -17 -22 -17
-22 -5 22 10 32 11 52 4 68 -8 17 -7 27 5 38 12 12 13 23 4 55 -8 32 -8 42 3
48 11 7 9 11 -8 20 -12 7 -21 21 -21 35 0 22 4 24 53 22 58 -1 55 6 44 -101
-7 -56 -6 -58 7 -30 7 17 16 53 18 82 6 61 5 62 -98 70 -129 10 -312 -37 -405
-104 -27 -19 -53 -32 -57 -29 -13 13 73 243 116 309 15 23 31 49 37 58 57 93
124 167 233 259 69 58 187 130 212 130 26 0 25 14 -2 32 -32 21 -68 31 -68 20
0 -5 9 -12 20 -15 29 -8 25 -20 -15 -41 -19 -11 -35 -23 -35 -28 0 -4 -9 -8
-19 -8 -11 0 -23 -4 -26 -10 -3 -5 -13 -10 -22 -10 -12 0 -13 3 -3 15 6 8 10
20 8 27 -3 7 2 18 11 25 14 10 14 13 -2 31 -16 18 -16 20 -2 26 9 3 29 6 43 6
24 1 22 3 -13 16 -134 52 -273 70 -410 54z m265 -280 c13 -9 13 -12 -2 -20 -9
-6 -24 -17 -32 -25 -8 -8 -19 -15 -25 -15 -6 0 -11 -4 -11 -10 0 -5 -6 -10
-14 -10 -7 0 -21 -15 -29 -32 -25 -53 -55 -80 -80 -72 -18 6 -20 4 -10 -7 12
-15 6 -69 -7 -69 -5 0 -11 -9 -15 -19 -5 -18 -52 -38 -62 -27 -3 3 4 15 16 27
12 13 21 36 21 55 0 41 9 64 24 64 16 0 76 65 76 82 0 7 -9 19 -20 26 -11 7
-20 17 -20 22 0 13 47 13 55 0 10 -17 38 -11 70 15 33 27 43 30 65 15z m500
-1256 c0 -9 -9 -18 -20 -21 -15 -4 -18 -11 -14 -28 7 -27 -13 -44 -23 -19 -6
16 -7 15 -20 -2 -12 -16 -13 -16 -13 9 0 17 5 27 15 27 21 0 19 20 -2 21 -10
0 2 6 27 13 25 8 46 14 48 15 1 0 2 -6 2 -15z m-156 -23 c8 -13 -3 -19 -24
-14 -11 3 -17 9 -14 14 7 11 31 12 38 0z m-118 -11 c27 0 32 -21 9 -40 -9 -7
-15 -20 -14 -29 4 -44 -20 -89 -42 -76 -5 4 -9 0 -9 -7 -1 -16 -29 32 -30 50
0 6 7 12 15 12 19 0 19 9 1 24 -8 6 -17 21 -21 34 -5 18 -2 22 14 22 12 0 21
5 21 11 0 6 7 8 16 5 9 -3 27 -6 40 -6z m198 -330 c-5 -5 -10 29 -10 78 l-1
87 10 -78 c5 -45 6 -82 1 -87z m29 -16 c-7 -40 -9 -28 -9 66 0 108 0 111 8 49
5 -36 5 -88 1 -115z"/>
<path d="M3170 5326 c0 -9 5 -16 10 -16 6 0 10 4 10 9 0 6 -4 13 -10 16 -5 3
-10 -1 -10 -9z"/>
<path d="M1298 5301 c-1 -5 -29 -37 -60 -69 -32 -33 -58 -63 -58 -67 0 -4 -18
-27 -40 -53 -43 -48 -47 -73 -5 -27 37 39 43 28 44 -83 1 -53 4 -65 19 -69 10
-2 24 -20 31 -39 7 -19 28 -54 46 -78 19 -25 39 -63 46 -84 8 -29 16 -39 26
-35 9 4 38 -18 78 -58 107 -109 214 -209 225 -209 5 0 10 4 10 8 0 5 14 19 31
31 43 32 55 18 42 -49 -8 -41 -8 -54 4 -66 8 -8 16 -14 18 -14 2 0 1 29 -1 65
-7 88 7 123 73 191 79 83 169 188 200 237 56 87 67 116 34 95 -15 -9 -23 -9
-35 1 -8 7 -20 10 -25 7 -5 -4 -12 -2 -16 4 -3 5 -14 10 -24 10 -12 0 -20 10
-24 29 -3 15 -18 42 -32 59 -30 36 -28 51 22 161 19 40 31 76 28 79 -9 10 -33
-30 -57 -95 -12 -35 -29 -65 -36 -68 -13 -5 -83 56 -93 80 -2 6 -17 -2 -33
-17 -21 -21 -24 -28 -12 -28 9 0 16 -4 16 -9 0 -16 -30 -33 -50 -28 -25 7 -34
-7 -19 -31 10 -15 6 -23 -20 -50 -18 -17 -30 -36 -26 -42 3 -5 0 -10 -8 -10
-9 0 -19 -17 -25 -42 -6 -24 -18 -52 -27 -63 -15 -19 -16 -16 -11 44 7 74 25
140 43 159 10 11 12 7 7 -17 -4 -20 -2 -31 5 -31 6 0 11 9 11 20 0 12 7 20 18
20 12 0 8 7 -15 26 -26 20 -31 29 -24 43 14 25 -22 101 -48 101 -11 0 -22 4
-25 9 -3 5 -17 12 -32 15 -19 5 -30 1 -44 -16 -21 -26 -32 -20 -32 18 0 27 -6
28 -75 8 -19 -5 -23 -2 -23 15 0 21 -15 29 -22 12z m635 -456 c-3 -9 -8 -14
-10 -11 -3 3 -2 9 2 15 9 16 15 13 8 -4z m-380 -11 c-7 -3 -9 -12 -6 -20 3 -8
-1 -14 -11 -14 -9 0 -16 6 -16 13 0 18 10 27 29 26 10 0 11 -3 4 -5z"/>
<path d="M1717 5203 c-4 -3 -7 -11 -7 -17 0 -6 5 -5 12 2 6 6 9 14 7 17 -3 3
-9 2 -12 -2z"/>
<path d="M4546 5195 c4 -8 8 -15 10 -15 2 0 4 7 4 15 0 8 -4 15 -10 15 -5 0
-7 -7 -4 -15z"/>
<path d="M5700 5161 c0 -6 4 -13 10 -16 6 -3 7 1 4 9 -7 18 -14 21 -14 7z"/>
<path d="M3762 5093 c2 -11 14 -19 33 -21 30 -4 30 -4 11 17 -23 26 -49 28
-44 4z"/>
<path d="M4940 5101 c0 -6 5 -13 10 -16 6 -3 10 -26 10 -51 0 -32 4 -44 15
-44 11 0 15 -11 15 -39 0 -22 5 -41 11 -43 13 -4 1 -58 -12 -58 -5 0 -15 12
-22 28 -6 15 -17 30 -24 35 -6 4 -15 22 -19 40 -3 17 -17 47 -29 65 l-22 32
-18 -20 c-24 -27 -22 -89 4 -107 10 -7 24 -34 30 -60 15 -59 38 -88 58 -72 10
9 13 5 13 -20 0 -29 3 -32 23 -26 17 5 19 4 7 -4 -13 -9 -9 -16 23 -46 21 -19
43 -33 48 -30 5 4 9 -2 9 -13 0 -10 11 -24 26 -30 14 -7 22 -17 19 -22 -3 -6
2 -13 12 -17 10 -4 21 -11 25 -17 7 -10 117 69 125 90 2 6 13 10 23 7 12 -3
23 3 32 16 15 24 38 28 38 6 0 -8 5 -15 10 -15 6 0 10 -7 10 -16 0 -15 9 -37
72 -174 41 -88 44 -98 59 -155 7 -27 15 -42 17 -32 2 9 -2 32 -8 51 -13 39
-29 136 -23 136 8 0 78 -53 91 -69 23 -28 12 -2 -20 46 -17 26 -50 67 -73 90
-65 63 -103 127 -111 181 -5 37 -2 51 10 61 9 7 16 19 16 26 0 8 3 15 8 17 4
2 20 28 35 58 31 60 37 111 18 134 -12 14 -16 14 -43 0 -30 -15 -31 -15 -59
15 -15 17 -34 31 -42 31 -8 0 -20 7 -27 15 -18 22 -48 18 -73 -9 -12 -13 -31
-25 -42 -28 -15 -3 -20 -11 -18 -31 l2 -27 -22 20 c-14 13 -23 16 -28 9 -3 -6
-9 0 -13 14 -4 17 -15 26 -36 30 -22 5 -28 10 -23 23 5 13 2 15 -15 10 -11 -4
-23 -2 -27 4 -8 13 -75 13 -75 1z m-70 -137 c0 -8 -4 -12 -10 -9 -5 3 -10 10
-10 16 0 5 5 9 10 9 6 0 10 -7 10 -16z m70 -144 c0 -5 -2 -10 -4 -10 -3 0 -8
5 -11 10 -3 6 -1 10 4 10 6 0 11 -4 11 -10z"/>
<path d="M5831 4908 c6 -18 28 -78 49 -133 21 -55 41 -109 44 -119 13 -38 17
-7 6 36 -14 50 -18 61 -59 151 -17 37 -31 71 -31 76 0 6 -4 12 -10 16 -5 3 -5
-8 1 -27z"/>
<path d="M4855 4900 c3 -5 8 -10 11 -10 2 0 4 5 4 10 0 6 -5 10 -11 10 -5 0
-7 -4 -4 -10z"/>
<path d="M4871 4864 c0 -11 3 -14 6 -6 3 7 2 16 -1 19 -3 4 -6 -2 -5 -13z"/>
<path d="M4052 4810 c0 -14 2 -19 5 -12 2 6 2 18 0 25 -3 6 -5 1 -5 -13z"/>
<path d="M3608 4738 c-10 -27 4 -88 19 -88 12 0 14 8 9 38 -3 20 -6 43 -6 50
0 6 -4 12 -9 12 -5 0 -11 -6 -13 -12z"/>
<path d="M4071 4740 c-1 -22 20 -93 25 -87 3 3 -1 27 -10 53 -8 27 -15 42 -15
34z"/>
<path d="M2166 4586 c-5 -58 -4 -92 3 -99 18 -18 22 14 13 103 l-8 85 -8 -89z"/>
<path d="M5940 4610 c0 -12 5 -30 10 -40 6 -10 20 -65 32 -122 33 -160 30
-379 -8 -565 -7 -36 -18 -28 -53 40 -41 76 -54 91 -41 47 5 -19 7 -36 5 -39
-3 -2 7 -18 23 -35 16 -17 34 -51 41 -76 7 -25 20 -56 28 -70 13 -23 14 -22 8
28 -5 48 -4 54 15 59 16 4 18 8 9 19 -8 10 -10 37 -5 87 31 298 25 403 -36
635 -12 47 -28 65 -28 32z"/>
<path d="M2465 4570 c-7 -23 2 -43 16 -35 12 8 12 55 0 55 -5 0 -12 -9 -16
-20z"/>
<path d="M3612 4500 c2 -52 8 -94 15 -101 22 -21 26 15 13 106 -16 113 -33
111 -28 -5z"/>
<path d="M4771 4574 c0 -11 3 -14 6 -6 3 7 2 16 -1 19 -3 4 -6 -2 -5 -13z"/>
<path d="M4114 4555 c10 -41 26 -56 26 -23 0 14 -7 32 -17 39 -15 13 -16 11
-9 -16z"/>
<path d="M1294 4514 c-4 -22 -2 -40 5 -47 8 -8 11 1 11 36 0 56 -7 61 -16 11z"/>
<path d="M4790 4520 c0 -19 5 -30 14 -30 21 0 27 27 10 45 -21 21 -24 19 -24
-15z"/>
<path d="M3166 4507 c3 -10 9 -15 12 -12 3 3 0 11 -7 18 -10 9 -11 8 -5 -6z"/>
<path d="M3700 4496 c0 -7 7 -19 15 -26 7 -6 27 -35 44 -65 30 -54 83 -105 89
-86 4 12 -126 191 -139 191 -5 0 -9 -6 -9 -14z"/>
<path d="M2506 4421 c8 -58 28 -109 38 -93 7 12 -21 123 -35 137 -7 7 -8 -8
-3 -44z"/>
<path d="M3181 4413 c1 -27 5 -61 9 -78 l8 -30 1 31 c0 16 6 35 12 41 8 8 7
21 -2 47 -18 50 -29 45 -28 -11z"/>
<path d="M2425 4430 c-11 -19 -18 -116 -7 -105 8 8 22 115 15 115 -1 0 -5 -4
-8 -10z"/>
<path d="M2184 4370 c8 -51 27 -63 24 -16 -2 22 -9 41 -16 44 -10 3 -12 -4 -8
-28z"/>
<path d="M1312 4370 c0 -14 2 -19 5 -12 2 6 2 18 0 25 -3 6 -5 1 -5 -13z"/>
<path d="M5636 4365 c9 -14 19 -24 21 -21 6 6 -20 46 -30 46 -4 0 0 -11 9 -25z"/>
<path d="M4164 4338 c6 -33 23 -58 37 -58 14 0 11 28 -6 60 -21 40 -39 39 -31
-2z"/>
<path d="M4235 4361 c-7 -13 51 -78 61 -68 4 4 1 19 -6 33 -17 30 -46 49 -55
35z"/>
<path d="M3642 4325 c0 -16 2 -22 5 -12 2 9 2 23 0 30 -3 6 -5 -1 -5 -18z"/>
<path d="M4874 4305 c4 -16 12 -34 17 -39 5 -6 5 4 -1 24 -12 42 -25 55 -16
15z"/>
<path d="M5700 4281 c0 -5 5 -13 10 -16 6 -3 10 -2 10 4 0 5 -4 13 -10 16 -5
3 -10 2 -10 -4z"/>
<path d="M2402 4250 c0 -14 2 -19 5 -12 2 6 2 18 0 25 -3 6 -5 1 -5 -13z"/>
<path d="M2557 4249 c4 -13 8 -18 11 -10 2 7 -1 18 -6 23 -8 8 -9 4 -5 -13z"/>
<path d="M3652 4250 c0 -14 2 -19 5 -12 2 6 2 18 0 25 -3 6 -5 1 -5 -13z"/>
<path d="M4910 4209 c0 -8 4 -20 9 -27 7 -11 9 -11 14 1 3 9 -1 21 -9 27 -11
10 -14 10 -14 -1z"/>
<path d="M5554 4200 c29 -101 37 -184 42 -410 5 -248 -3 -391 -21 -397 -6 -2
-23 23 -39 54 -15 32 -49 90 -74 128 -26 39 -52 82 -59 98 -13 28 -40 39 -29
11 3 -9 6 -22 6 -30 0 -8 7 -14 15 -14 8 0 15 -5 15 -10 0 -6 12 -29 27 -53
24 -38 27 -52 27 -137 1 -53 6 -104 13 -115 9 -16 10 -3 6 64 -8 105 7 106 53
1 18 -41 37 -76 42 -78 5 -1 15 42 22 98 7 55 17 103 23 107 6 4 25 6 42 5
l30 -1 -35 17 c-34 17 -35 20 -33 67 3 45 7 54 45 88 57 49 80 46 91 -13 5
-24 16 -54 24 -65 15 -19 15 -19 9 5 -25 90 -18 121 29 133 12 3 4 5 -17 6
-35 1 -117 -24 -128 -39 -3 -4 -15 -11 -28 -15 l-24 -7 3 112 c2 69 -1 114 -8
118 -5 4 -13 32 -17 62 -12 94 -38 215 -48 225 -7 7 -8 2 -4 -15z"/>
<path d="M7098 4202 c-4 -11 -81 -62 -153 -102 -57 -32 -95 -45 -215 -76 -75
-19 -297 -47 -321 -41 -26 7 -36 -18 -15 -38 9 -9 28 -37 43 -63 15 -26 30
-49 33 -52 9 -8 41 -81 62 -140 86 -243 99 -455 41 -710 l-17 -76 -49 60 c-95
117 -260 258 -285 242 -25 -15 62 -306 122 -405 22 -36 46 -73 54 -81 13 -12
11 -15 -14 -22 -16 -5 -76 -9 -134 -10 -167 -3 -245 24 -350 119 -13 12 -26
21 -28 19 -2 -2 1 -35 6 -72 10 -80 1 -199 -22 -264 -23 -67 -101 -220 -130
-254 l-24 -29 -7 39 c-18 116 -28 152 -51 187 -14 21 -30 37 -36 35 -6 -2 -23
-37 -38 -78 -15 -41 -39 -98 -53 -126 -22 -43 -117 -176 -177 -247 -23 -28
-101 -90 -106 -85 -2 3 11 47 30 99 19 52 42 130 51 174 9 44 18 88 21 98 13
41 -31 10 -135 -96 -61 -61 -119 -124 -129 -138 -9 -15 -41 -57 -69 -94 -29
-38 -53 -72 -53 -76 0 -5 -5 -9 -11 -9 -9 0 -10 32 -6 113 4 85 3 102 -4 72
-15 -58 -36 -251 -44 -397 -5 -83 -12 -131 -20 -138 -7 -6 -46 -15 -86 -20
-653 -82 -799 -112 -1324 -272 -158 -48 -229 -66 -242 -61 -17 7 -16 38 1 88
13 38 17 40 76 52 34 7 76 19 93 27 18 7 48 19 67 26 19 8 42 19 51 27 8 7 18
13 22 13 9 0 223 99 257 120 8 5 29 15 45 23 39 18 225 117 295 156 30 17 62
34 70 38 8 3 26 15 40 26 l25 19 -25 -7 c-14 -4 -32 -13 -40 -19 -15 -12 -271
-139 -430 -214 -47 -22 -119 -56 -160 -77 -41 -20 -109 -50 -150 -67 -41 -16
-91 -37 -110 -46 -21 -9 -72 -17 -125 -20 l-90 -3 -70 56 c-38 31 -77 61 -85
68 -42 34 -232 185 -260 207 -48 37 -86 62 -175 119 -44 28 -89 58 -100 67
-11 9 -38 28 -60 42 -22 15 -43 31 -47 37 -5 6 -8 3 -8 -6 0 -9 12 -25 27 -35
36 -23 53 -40 53 -53 0 -5 20 -19 45 -30 25 -11 45 -24 45 -30 0 -5 -19 1 -43
13 -67 36 -77 19 -93 -164 -8 -89 -10 -101 -21 -108 -15 -10 -8 -138 11 -207
13 -43 16 -80 12 -130 -4 -38 -9 -139 -12 -222 -6 -132 -4 -156 10 -178 25
-38 67 -56 106 -45 40 11 80 3 80 -16 0 -19 4 -18 51 12 27 16 51 24 72 22 31
-3 32 -5 35 -54 3 -44 -1 -56 -24 -83 -15 -18 -51 -46 -80 -62 -78 -44 -79
-46 -60 -132 15 -66 15 -79 2 -118 -31 -96 -38 -148 -31 -234 l7 -85 964 0
964 0 55 58 c30 31 106 111 170 176 64 66 132 139 151 162 27 33 63 56 157
103 139 69 200 118 283 227 51 69 56 78 41 89 -10 7 -17 20 -17 29 0 9 -10 20
-22 25 -13 5 -32 18 -44 29 -11 10 -30 25 -42 31 -12 6 -22 17 -22 23 0 7 5 6
15 -2 12 -10 15 -10 15 4 0 9 -6 16 -14 16 -19 0 -27 24 -19 63 7 37 22 50 40
35 10 -8 13 -4 13 17 0 27 -1 27 -18 12 -22 -20 -32 -21 -32 -4 0 6 14 21 30
32 17 11 34 34 38 50 6 20 15 31 31 33 15 3 21 8 17 19 -3 8 -6 30 -6 49 0 25
-4 34 -17 35 -15 0 -14 2 3 9 23 9 40 66 29 101 -4 13 -2 19 7 17 18 -4 25
181 7 192 -13 9 -28 77 -29 136 0 22 -5 45 -11 51 -13 13 -4 33 16 33 16 0 30
33 16 38 -13 4 45 78 67 87 13 5 13 3 1 -11 -12 -15 -11 -16 16 -10 l30 7 -3
-46 c-2 -25 -8 -45 -12 -45 -5 0 -6 -9 -3 -20 3 -11 0 -27 -7 -35 -6 -8 -8
-20 -4 -26 4 -7 3 -9 -3 -6 -12 7 -28 -258 -19 -314 3 -19 8 -97 11 -174 4
-77 8 -143 11 -146 2 -4 5 -81 7 -172 4 -157 3 -166 -16 -171 -25 -6 -15 -21
28 -42 19 -9 53 -41 76 -72 62 -84 136 -153 155 -145 13 5 67 -16 209 -82 50
-23 135 -48 142 -41 4 3 0 6 -9 6 -24 0 -45 32 -43 65 20 258 23 1088 4 1180
-14 71 -14 110 1 190 6 33 15 119 21 190 5 72 14 131 19 133 4 2 3 18 -4 35
-10 23 -11 55 -5 116 7 81 0 171 -18 221 -5 14 -11 58 -12 99 -2 59 0 73 11
68 123 -49 136 -58 143 -98 4 -21 11 -39 16 -39 4 0 6 7 3 15 -7 17 4 19 25 6
9 -6 10 -11 2 -15 -6 -4 -11 -25 -11 -47 0 -32 -3 -39 -20 -39 -17 0 -20 -7
-21 -42 -1 -24 0 -47 1 -53 2 -5 5 -25 8 -43 4 -29 8 -33 43 -38 23 -4 39 -12
39 -20 0 -10 13 -14 40 -14 l40 0 0 -55 c0 -39 4 -55 13 -55 7 0 21 -24 31
-52 11 -29 23 -57 27 -62 5 -6 9 -62 9 -125 l0 -114 46 -43 c45 -43 45 -43 65
-23 10 10 26 19 34 19 8 0 15 9 15 20 0 17 7 20 40 20 33 0 40 -3 40 -20 0
-11 6 -20 14 -20 24 0 141 -68 144 -83 2 -8 14 -19 27 -25 13 -6 26 -20 30
-31 3 -12 12 -21 19 -21 7 0 22 -18 35 -40 12 -22 27 -40 33 -40 12 0 47 -41
48 -55 0 -6 8 -18 18 -26 9 -9 28 -29 42 -46 14 -16 33 -32 43 -36 11 -4 21
-15 23 -25 5 -16 55 -52 75 -52 5 0 9 126 9 305 l0 304 -77 2 c-43 1 -115 1
-160 0 -57 -1 -83 2 -83 10 0 8 -17 10 -55 6 -30 -3 -57 -1 -60 4 -12 19 -80
10 -100 -13 l-20 -23 -3 23 c-3 19 -9 22 -52 22 -48 0 -50 2 -70 40 -11 22
-25 40 -30 40 -6 0 -10 18 -10 40 0 29 4 40 15 40 11 0 15 11 15 40 0 38 -6
45 -36 41 -6 -1 -16 17 -22 39 l-10 40 42 11 c22 6 50 16 61 24 16 9 43 10
120 4 55 -5 129 -9 165 -9 84 0 210 -11 210 -19 0 -3 36 -5 80 -3 l80 4 0 964
c0 858 -3 1001 -22 956z m-1181 -1664 c-3 -8 -6 -5 -6 6 -1 11 2 17 5 13 3 -3
4 -12 1 -19z m-643 -352 c-10 -31 -24 -56 -31 -56 -7 0 -13 -4 -13 -10 0 -5 5
-10 10 -10 6 0 4 -13 -5 -30 -16 -31 -35 -32 -35 -4 0 8 4 13 9 10 5 -3 11 1
15 9 3 8 1 15 -4 15 -6 0 -10 14 -10 31 0 22 10 42 38 69 20 21 38 37 40 35 2
-2 -4 -28 -14 -59z m-77 -110 c1 -69 -2 -88 -17 -101 -11 -10 -15 -25 -12 -40
2 -14 0 -25 -6 -25 -6 0 -14 -9 -17 -21 -10 -29 -23 -12 -28 36 -4 39 -4 39
-7 -10 l-3 -50 -6 45 c-4 25 -3 57 2 73 6 18 5 32 -2 41 -8 9 -6 18 9 34 11
12 20 24 20 27 0 5 61 75 65 75 1 0 1 -38 2 -84z m-107 -76 c0 -5 -4 -10 -10
-10 -5 0 -10 5 -10 10 0 6 5 10 10 10 6 0 10 -4 10 -10z m104 -199 c3 -5 -1
-12 -9 -15 -11 -4 -14 -13 -9 -31 7 -26 -1 -30 -42 -19 -29 8 -20 48 14 61 36
14 40 15 46 4z m53 -97 c-3 -3 -12 -4 -19 -1 -8 3 -5 6 6 6 11 1 17 -2 13 -5z"/>
<path d="M5230 2180 c0 -5 5 -10 10 -10 6 0 10 5 10 10 0 6 -4 10 -10 10 -5 0
-10 -4 -10 -10z"/>
<path d="M5156 2054 c-4 -9 -4 -19 -1 -22 2 -3 7 3 11 12 4 9 4 19 1 22 -2 3
-7 -3 -11 -12z"/>
<path d="M4231 4185 c1 -19 18 -51 18 -35 0 8 -4 22 -9 30 -5 8 -9 11 -9 5z"/>
<path d="M2392 4140 c0 -19 2 -27 5 -17 2 9 2 25 0 35 -3 9 -5 1 -5 -18z"/>
<path d="M2596 4145 c4 -16 11 -34 16 -40 7 -7 8 -1 3 15 -12 40 -26 59 -19
25z"/>
<path d="M1193 4153 c-8 -3 -13 -24 -13 -56 0 -63 17 -51 22 16 2 26 3 47 3
46 0 0 -6 -3 -12 -6z"/>
<path d="M2250 4116 c0 -15 18 -31 26 -23 7 7 -7 37 -17 37 -5 0 -9 -6 -9 -14z"/>
<path d="M3395 4090 c10 -11 20 -20 22 -20 2 0 -2 9 -9 20 -7 11 -17 20 -22
20 -5 0 -1 -9 9 -20z"/>
<path d="M4040 4085 c0 -20 5 -25 25 -25 30 0 32 11 7 33 -25 23 -32 21 -32
-8z"/>
<path d="M5050 4098 c0 -6 28 -72 36 -86 2 -2 10 0 20 6 15 8 13 14 -19 48
-20 22 -37 36 -37 32z"/>
<path d="M2631 4070 c0 -8 4 -22 9 -30 12 -18 12 -2 0 25 -6 13 -9 15 -9 5z"/>
<path d="M2387 4050 c-7 -28 1 -46 14 -33 6 6 6 19 1 33 l-9 24 -6 -24z"/>
<path d="M2290 4038 c0 -25 -9 -27 -78 -17 -40 6 -80 5 -109 -1 -32 -8 -49 -7
-59 1 -14 12 -17 4 -29 -79 -7 -55 0 -66 30 -46 59 39 214 57 265 31 34 -17
31 -40 -6 -47 -17 -4 -36 -10 -42 -14 -19 -11 -14 -26 8 -26 32 0 50 -47 39
-103 -22 -121 -96 -176 -130 -95 -11 27 -14 29 -20 12 -4 -10 -6 -82 -5 -159
2 -119 6 -149 25 -200 36 -91 44 -91 36 0 -5 60 -3 91 9 124 8 25 13 49 10 55
-3 6 2 2 11 -9 10 -11 28 -43 41 -71 13 -28 35 -61 49 -74 l26 -25 37 20 c32
17 41 30 62 90 l24 70 12 -45 c11 -42 12 -38 13 72 1 137 -17 231 -57 290 -59
88 -62 107 -14 71 43 -32 97 -109 151 -217 28 -56 51 -96 51 -90 0 6 -9 46
-20 89 -11 43 -20 93 -20 110 0 37 -54 110 -116 160 -21 17 -51 42 -67 58 -16
15 -30 27 -33 27 -2 0 -4 -25 -4 -55 0 -30 -4 -55 -9 -55 -4 0 -16 21 -26 48
-25 65 -55 120 -55 100z"/>
<path d="M4135 4014 c-10 -8 -26 -14 -34 -14 -28 0 -187 -86 -248 -134 -32
-25 -66 -46 -75 -46 -22 0 -22 1 -3 -43 8 -20 15 -39 15 -42 0 -3 -7 -5 -15
-5 -8 0 -15 4 -15 8 0 5 -11 14 -24 22 -24 12 -28 9 -96 -59 -62 -63 -69 -74
-59 -92 6 -12 9 -32 6 -45 -2 -14 -1 -26 3 -29 4 -2 43 34 88 80 45 47 87 85
95 85 8 0 21 -8 31 -19 15 -16 15 -26 4 -89 -9 -56 -9 -92 0 -164 12 -93 30
-168 41 -168 3 0 6 26 7 58 1 57 37 162 51 149 3 -4 12 -2 20 4 10 9 13 7 13
-6 0 -31 42 -139 69 -175 34 -47 41 -51 79 -46 47 7 98 59 112 115 7 25 14 53
16 62 3 9 14 19 25 22 27 7 48 -41 43 -97 l-4 -41 11 40 c6 23 9 89 6 155 -5
132 -26 200 -83 273 -37 47 -111 97 -145 97 -29 0 -22 29 9 37 15 5 69 8 120
8 50 0 92 3 92 6 0 3 -25 23 -56 45 -30 21 -61 44 -68 50 -9 9 -17 8 -31 -2z
m-145 -219 c53 -28 65 -86 31 -153 -40 -78 -95 -104 -150 -71 -27 16 -32 24
-27 45 4 14 0 37 -9 54 -8 16 -15 42 -15 59 0 25 7 32 43 49 78 37 87 38 127
17z"/>
<path d="M1186 4011 c-4 -7 -5 -15 -2 -18 9 -9 19 4 14 18 -4 11 -6 11 -12 0z"/>
<path d="M4300 4017 c0 -4 11 -26 25 -51 14 -25 25 -55 25 -67 0 -13 12 -35
27 -51 23 -24 28 -25 38 -12 9 13 19 10 70 -29 122 -89 225 -215 225 -274 0
-32 -24 -100 -58 -163 l-24 -45 43 40 c24 22 46 43 49 46 3 3 59 52 125 109
66 57 119 109 117 114 -7 22 -82 64 -82 46 0 -39 -146 41 -266 147 -84 72
-147 113 -224 143 -30 12 -63 29 -72 37 -10 9 -18 13 -18 10z"/>
<path d="M2520 3943 c0 -5 9 -18 20 -28 11 -10 20 -15 20 -11 0 4 -9 16 -20
28 -11 12 -20 17 -20 11z"/>
<path d="M5030 3920 c0 -22 43 -123 63 -144 9 -11 17 -25 17 -31 0 -6 7 -20
15 -31 14 -18 15 -17 9 11 -4 17 -12 35 -18 40 -6 6 -20 30 -31 55 -35 81 -54
115 -55 100z"/>
<path d="M5100 3908 c0 -9 5 -20 10 -23 13 -8 13 5 0 25 -8 13 -10 13 -10 -2z"/>
<path d="M1850 3891 c0 -12 -76 -61 -119 -75 -20 -7 -35 -16 -34 -20 1 -4 19
-27 41 -50 36 -38 122 -167 122 -182 0 -3 9 -17 20 -31 22 -28 27 -13 11 30
-6 14 -15 62 -21 107 -10 73 -9 84 6 101 14 15 20 17 32 7 13 -11 14 -9 7 12
-15 52 -44 110 -54 110 -6 0 -11 -4 -11 -9z"/>
<path d="M1620 3861 c0 -17 5 -31 10 -31 6 0 10 11 10 24 0 14 -4 28 -10 31
-6 4 -10 -7 -10 -24z"/>
<path d="M2560 3880 c0 -5 5 -10 11 -10 5 0 7 5 4 10 -3 6 -8 10 -11 10 -2 0
-4 -4 -4 -10z"/>
<path d="M4700 3842 c0 -5 7 -15 15 -22 8 -7 15 -8 15 -2 0 5 -7 15 -15 22 -8
7 -15 8 -15 2z"/>
<path d="M3630 3825 c0 -9 9 -15 21 -15 18 0 19 2 9 15 -7 8 -16 15 -21 15 -5
0 -9 -7 -9 -15z"/>
<path d="M5122 3810 c0 -14 2 -19 5 -12 2 6 2 18 0 25 -3 6 -5 1 -5 -13z"/>
<path d="M4795 3750 c3 -5 8 -10 11 -10 2 0 4 5 4 10 0 6 -5 10 -11 10 -5 0
-7 -4 -4 -10z"/>
<path d="M5875 3750 c-4 -6 -2 -10 3 -10 16 0 69 -54 85 -86 9 -17 23 -37 33
-45 16 -13 17 -12 10 15 -4 16 -18 43 -32 59 -33 39 -92 78 -99 67z"/>
<path d="M6081 3744 c0 -11 3 -14 6 -6 3 7 2 16 -1 19 -3 4 -6 -2 -5 -13z"/>
<path d="M5346 3725 c4 -8 10 -15 15 -15 4 0 6 7 3 15 -4 8 -10 15 -15 15 -4
0 -6 -7 -3 -15z"/>
<path d="M4847 3709 c7 -7 15 -10 18 -7 3 3 -2 9 -12 12 -14 6 -15 5 -6 -5z"/>
<path d="M6104 3565 c0 -82 2 -115 3 -72 2 43 2 110 0 150 -1 40 -3 5 -3 -78z"/>
<path d="M1970 3653 c1 -4 7 -19 16 -33 l14 -25 -2 29 c-2 16 -9 31 -15 34 -7
2 -13 0 -13 -5z"/>
<path d="M1542 3607 c2 -15 7 -28 13 -28 16 -1 16 16 0 36 -15 19 -15 19 -13
-8z"/>
<path d="M5356 3604 c-7 -25 -54 -104 -63 -104 -2 0 -20 16 -39 36 -42 46 -44
37 -3 -23 l32 -46 -39 6 -39 6 33 -15 c18 -8 35 -21 38 -29 4 -8 14 -15 23
-15 10 0 26 -7 37 -15 30 -23 37 -18 17 15 -9 17 -21 30 -25 30 -14 0 -9 35
11 76 19 40 36 104 28 104 -3 0 -8 -12 -11 -26z"/>
<path d="M1627 3523 c-4 -6 0 -19 8 -29 11 -15 14 -16 15 -4 0 21 -16 44 -23
33z"/>
<path d="M5700 3514 c0 -3 20 -25 45 -50 54 -53 59 -45 8 14 -33 38 -53 52
-53 36z"/>
<path d="M5168 3490 c9 -26 27 -27 27 -3 0 10 -8 19 -17 21 -14 3 -16 -1 -10
-18z"/>
<path d="M5264 3400 c-5 -8 -18 -37 -29 -64 -21 -49 -45 -72 -45 -42 0 9 -4
16 -9 16 -11 0 -21 -112 -12 -123 4 -4 12 3 18 15 6 13 20 41 31 63 40 76 63
128 59 139 -2 6 -7 4 -13 -4z"/>
<path d="M5805 3385 c38 -105 38 -149 1 -226 -24 -52 -111 -146 -141 -153 -14
-4 -23 -11 -20 -16 4 -6 -1 -13 -9 -16 -9 -3 -16 -12 -16 -20 0 -8 -4 -14 -9
-14 -5 0 -24 -12 -41 -26 -17 -15 -34 -24 -37 -20 -3 3 6 15 21 27 40 31 56
49 56 62 0 8 -3 7 -9 -2 -6 -9 -11 -10 -15 -2 -4 6 -15 11 -24 10 -11 0 -12
-3 -4 -6 19 -8 14 -33 -7 -33 -14 0 -21 -9 -26 -31 -7 -29 -8 -30 -48 -24 -23
4 -53 13 -67 20 -14 8 -40 21 -58 29 -33 15 -33 15 -17 46 19 37 94 112 105
105 4 -3 19 5 34 16 l26 20 0 -30 c0 -17 5 -31 11 -31 16 0 3 144 -16 179
l-13 26 -12 -45 c-13 -49 -43 -97 -75 -120 -49 -35 -115 -126 -115 -159 0 -5
12 -16 28 -24 123 -67 124 -67 201 -67 61 0 88 5 138 27 58 26 78 50 39 47
-22 -2 -20 13 5 34 12 9 48 52 80 94 41 56 61 93 70 132 15 68 5 153 -22 186
-17 20 -19 21 -14 5z"/>
<path d="M6101 3374 c0 -11 3 -14 6 -6 3 7 2 16 -1 19 -3 4 -6 -2 -5 -13z"/>
<path d="M6092 3260 c0 -19 2 -27 5 -17 2 9 2 25 0 35 -3 9 -5 1 -5 -18z"/>
<path d="M4261 3234 c0 -11 3 -14 6 -6 3 7 2 16 -1 19 -3 4 -6 -2 -5 -13z"/>
<path d="M5640 3102 c0 -10 9 -27 20 -37 11 -10 20 -13 20 -7 0 7 -4 12 -10
12 -5 0 -9 10 -7 21 1 12 -4 24 -10 26 -8 3 -13 -3 -13 -15z"/>
<path d="M2807 3060 c-33 -49 -68 -68 -130 -67 -26 0 -49 -2 -52 -5 -14 -14
74 -218 116 -268 17 -20 19 -21 13 -5 -30 80 -54 162 -54 184 0 32 7 42 43 61
42 21 75 57 88 97 16 49 6 50 -24 3z"/>
<path d="M5418 3072 c-20 -4 -22 -11 -9 -31 7 -11 11 -9 21 9 13 25 12 28 -12
22z"/>
<path d="M3952 3038 c3 -7 13 -15 24 -17 16 -3 17 -1 5 13 -16 19 -34 21 -29
4z"/>
<path d="M4075 3010 c3 -5 12 -7 20 -3 21 7 19 13 -6 13 -11 0 -18 -4 -14 -10z"/>
<path d="M5431 2994 c0 -11 3 -14 6 -6 3 7 2 16 -1 19 -3 4 -6 -2 -5 -13z"/>
<path d="M5905 2950 c-10 -11 -13 -20 -8 -20 13 0 38 29 31 35 -3 3 -13 -4
-23 -15z"/>
<path d="M5855 2910 c-3 -5 1 -10 9 -10 9 0 16 5 16 10 0 6 -4 10 -9 10 -6 0
-13 -4 -16 -10z"/>
<path d="M5709 2783 c-13 -16 -12 -17 4 -4 16 13 21 21 13 21 -2 0 -10 -8 -17
-17z"/>
<path d="M5111 2657 c-6 -6 -11 -15 -11 -21 0 -6 4 -6 11 1 8 8 22 8 50 -2 51
-18 50 -5 0 16 -28 12 -42 14 -50 6z"/>
<path d="M5485 2633 c-50 -31 -67 -37 -112 -36 -29 1 -68 4 -86 8 -28 5 -30 4
-12 -7 11 -7 51 -12 90 -12 57 0 80 5 122 28 28 15 54 34 57 42 7 19 9 19 -59
-23z"/>
<path d="M5082 2603 c-18 -32 -15 -51 4 -25 8 12 14 28 11 35 -2 7 -8 3 -15
-10z"/>
<path d="M5025 2460 c-3 -5 -1 -10 4 -10 6 0 11 5 11 10 0 6 -2 10 -4 10 -3 0
-8 -4 -11 -10z"/>
<path d="M5005 2429 c-4 -6 -5 -12 -2 -15 2 -3 7 2 10 11 7 17 1 20 -8 4z"/>
<path d="M4950 2328 c-28 -42 -29 -55 -9 -74 15 -13 19 -14 19 -3 1 8 5 33 9
57 9 47 3 53 -19 20z"/>
<path d="M4951 2214 c0 -11 3 -14 6 -6 3 7 2 16 -1 19 -3 4 -6 -2 -5 -13z"/>
<path d="M4355 1870 c-13 -5 -14 -9 -5 -9 8 0 24 4 35 9 13 5 14 9 5 9 -8 0
-24 -4 -35 -9z"/>
<path d="M6400 1586 c0 -9 -7 -12 -17 -10 -10 3 -27 -2 -38 -10 -18 -14 -18
-15 -2 -16 23 0 22 -16 -4 -33 -20 -14 -20 -20 -16 -338 5 -324 8 -397 26
-584 6 -55 13 -133 16 -172 l6 -73 -48 -1 -48 0 45 -14 c25 -8 133 -28 240
-45 107 -17 209 -35 225 -40 17 -5 49 -12 73 -15 65 -10 156 -49 212 -90 l50
-37 0 267 0 266 -34 52 c-18 29 -46 66 -62 84 -41 45 -53 60 -103 128 -25 33
-50 65 -56 71 -6 6 -19 30 -29 53 -11 22 -23 41 -28 41 -4 0 -8 9 -8 20 0 11
-4 20 -10 20 -5 0 -19 20 -30 45 -11 25 -25 45 -30 45 -6 0 -10 11 -10 24 0
14 -5 28 -10 31 -6 4 -19 24 -30 46 -11 21 -26 39 -33 39 -13 0 -87 74 -87 88
-1 4 -15 18 -32 32 -55 45 -80 72 -90 101 -10 29 -38 48 -38 25z"/>
<path d="M3240 1269 c0 -5 5 -7 10 -4 6 3 10 8 10 11 0 2 -4 4 -10 4 -5 0 -10
-5 -10 -11z"/>
<path d="M5160 1011 c0 -12 5 -21 10 -21 6 0 10 6 10 14 0 8 -4 18 -10 21 -5
3 -10 -3 -10 -14z"/>
<path d="M2515 700 c-3 -5 -1 -10 4 -10 6 0 11 5 11 10 0 6 -2 10 -4 10 -3 0
-8 -4 -11 -10z"/>
<path d="M2365 551 c-3 -6 -15 -11 -26 -11 -23 0 -21 -23 2 -28 14 -2 45 36
36 45 -3 2 -8 0 -12 -6z"/>
</g>
</svg>
